<svg height="496pt" viewBox="0 0 496 496" width="496pt" xmlns="http://www.w3.org/2000/svg"><path d="m488 248c0 132.546875-107.453125 240-240 240s-240-107.453125-240-240 107.453125-240 240-240 240 107.453125 240 240zm0 0" fill="#85d3c1"/><path d="m308.800781 152c-8.160156-14.078125-12.800781-30.480469-12.800781-48 0-53.039062 42.960938-96 96-96v192c-35.601562 0-66.640625-19.359375-83.199219-48zm0 0" fill="#ff958a"/><path d="m488 104h-96v-96c53.039062 0 96 42.960938 96 96zm0 0" fill="#f5f7fa"/><path d="m396.960938 199.839844c-1.679688.082031-3.28125.160156-4.960938.160156-35.601562 0-66.640625-19.359375-83.199219-48h-220.800781c-4.398438 0-8 3.601562-8 8v184h336v-144zm0 0" fill="#f5f7fa"/><path d="m288 296v16h-32v-128h32zm0 0" fill="#ff958a"/><path d="m192 216h32v96h-32zm0 0" fill="#ff958a"/><path d="m128 248h32v64h-32zm0 0" fill="#ff958a"/><path d="m184 408h-80c-13.28125 0-24-10.71875-24-24v-40h336v40c0 13.28125-10.71875 24-24 24h-80v48h-128zm0 0" fill="#f9d48a"/><path d="m392 104h96c0 21.519531-7.121094 41.441406-19.039062 57.519531-16.640626 22.082031-42.5625 36.878907-72 38.320313-1.679688.082031-3.28125.160156-4.960938.160156zm0 0" fill="#f9d48a"/><path d="m296 24c0 8.800781-7.199219 16-16 16-4.398438 0-8.398438-1.761719-11.28125-4.71875-2.957031-2.882812-4.71875-6.882812-4.71875-11.28125 0-8.800781 7.199219-16 16-16s16 7.199219 16 16zm0 0" fill="#f9d48a"/><path d="m205.679688 75.839844c2.800781-2.398438 6.398437-3.839844 10.320312-3.839844 4.398438 0 8.398438 1.761719 11.28125 4.71875 2.957031 2.882812 4.71875 6.882812 4.71875 11.28125 0 8.800781-7.199219 16-16 16s-16-7.199219-16-16c0-4.878906 2.238281-9.28125 5.679688-12.160156zm0 0" fill="#f9d48a"/><path d="m168 24c0 4.878906-2.238281 9.28125-5.679688 12.160156-2.800781 2.398438-6.398437 3.839844-10.320312 3.839844-4.398438 0-8.398438-1.761719-11.28125-4.71875-2.957031-2.882812-4.71875-6.882812-4.71875-11.28125 0-8.800781 7.199219-16 16-16s16 7.199219 16 16zm0 0" fill="#f9d48a"/><path d="m99.28125 76.71875c2.957031 2.882812 4.71875 6.882812 4.71875 11.28125 0 8.800781-7.199219 16-16 16s-16-7.199219-16-16c0-4.398438 1.761719-8.398438 4.71875-11.28125 2.882812-2.957031 6.882812-4.71875 11.28125-4.71875s8.398438 1.761719 11.28125 4.71875zm0 0" fill="#f9d48a"/><path d="m24 8c8.800781 0 16 7.199219 16 16 0 4.398438-1.761719 8.398438-4.71875 11.28125-2.882812 2.957031-6.882812 4.71875-11.28125 4.71875-8.800781 0-16-7.199219-16-16s7.199219-16 16-16zm0 0" fill="#f9d48a"/><g fill="#232323"><path d="m496 104c0-57.34375-46.65625-104-104-104s-104 46.65625-104 104c0 14.167969 2.871094 27.679688 8.023438 40h-208.023438c-8.824219 0-16 7.175781-16 16v224c0 17.648438 14.351562 32 32 32h72v32h-45.367188c-68.519531-40.367188-114.632812-114.878906-114.632812-200 0-53.734375 18.457031-105.183594 52.175781-146.503906 4.328125 6.335937 11.59375 10.503906 19.824219 10.503906 13.230469 0 24-10.769531 24-24 0-3.695312-.902344-7.152344-2.40625-10.28125l32.117188-32.117188c3.136718 1.496094 6.59375 2.398438 10.289062 2.398438 3.320312 0 6.480469-.679688 9.359375-1.902344l33.527344 30.734375c-1.78125 3.351563-2.886719 7.113281-2.886719 11.167969 0 13.230469 10.769531 24 24 24s24-10.769531 24-24c0-3.695312-.902344-7.152344-2.40625-10.28125l32.117188-32.117188c3.136718 1.496094 6.59375 2.398438 10.289062 2.398438 13.230469 0 24-10.769531 24-24s-10.769531-24-24-24-24 10.769531-24 24c0 3.695312.902344 7.152344 2.40625 10.28125l-32.117188 32.117188c-3.136718-1.496094-6.59375-2.398438-10.289062-2.398438-3.320312 0-6.480469.679688-9.359375 1.902344l-33.527344-30.734375c1.78125-3.351563 2.886719-7.113281 2.886719-11.167969 0-13.230469-10.769531-24-24-24s-24 10.769531-24 24c0 3.695312.902344 7.152344 2.40625 10.28125l-32.117188 32.117188c-3.136718-1.496094-6.59375-2.398438-10.289062-2.398438s-7.152344.902344-10.28125 2.40625l-32.125-32.125c1.503906-3.128906 2.40625-6.585938 2.40625-10.28125 0-13.230469-10.769531-24-24-24s-24 10.769531-24 24 10.769531 24 24 24c3.695312 0 7.152344-.902344 10.28125-2.40625l32.117188 32.117188c-.382813.808593-.703126 1.640624-.992188 2.488281-42.175781 45.878906-65.40625 105.417969-65.40625 167.800781 0 136.742188 111.246094 248 248 248s248-111.257812 248-248c0-30.464844-5.480469-60.207031-16.246094-88.425781 10.230469-16.09375 16.246094-35.125 16.246094-55.574219zm-216-88c4.414062 0 8 3.59375 8 8s-3.585938 8-8 8-8-3.59375-8-8 3.585938-8 8-8zm-56 72c0 4.40625-3.585938 8-8 8s-8-3.59375-8-8 3.585938-8 8-8 8 3.59375 8 8zm-72-72c4.414062 0 8 3.59375 8 8s-3.585938 8-8 8-8-3.59375-8-8 3.585938-8 8-8zm-56 72c0 4.40625-3.585938 8-8 8s-8-3.59375-8-8 3.585938-8 8-8 8 3.59375 8 8zm-80-64c0-4.40625 3.585938-8 8-8s8 3.59375 8 8-3.585938 8-8 8-8-3.59375-8-8zm384 167.59375v-79.59375h79.59375c-3.816406 42.144531-37.449219 75.777344-79.59375 79.59375zm79.59375-95.59375h-79.59375v-79.59375c42.144531 3.816406 75.777344 37.449219 79.59375 79.59375zm-95.59375-79.59375v175.195312c-44.785156-4.066406-80-41.777343-80-87.601562s35.214844-83.535156 80-87.59375zm-79.496094 143.59375c18.511719 28.816406 50.777344 48 87.496094 48 5.457031 0 10.769531-.550781 16-1.359375v129.359375h-320v-176zm-112.503906 256h48v-16h-136c-8.824219 0-16-7.175781-16-16v-32h320v32c0 8.824219-7.175781 16-16 16h-136v16h48v32h-112zm-28.496094 48h168.992188c-26.207032 10.289062-54.6875 16-84.496094 16s-58.289062-5.710938-84.496094-16zm316.496094-216c0 85.121094-46.113281 159.632812-114.632812 200h-45.367188v-32h72c17.648438 0 32-14.351562 32-32v-181.089844c17.097656-5.542968 32.199219-15.429687 44.152344-28.316406 7.863281 23.582031 11.847656 48.230469 11.847656 73.40625zm0 0"/><path d="m416 64h16v16h-16zm0 0"/><path d="m448 64h16v16h-16zm0 0"/><path d="m376 368h16v16h-16zm0 0"/><path d="m344 368h16v16h-16zm0 0"/><path d="m312 368h16v16h-16zm0 0"/><path d="m312 224h16v16h-16zm0 0"/><path d="m344 224h48v16h-48zm0 0"/><path d="m312 256h16v16h-16zm0 0"/><path d="m344 256h48v16h-48zm0 0"/><path d="m312 288h16v16h-16zm0 0"/><path d="m344 288h48v16h-48zm0 0"/><path d="m296 176h-48v128h-16v-96h-48v96h-16v-64h-48v64h-16v16h192zm-96 48h16v80h-16zm-64 32h16v48h-16zm144 48h-16v-112h16zm0 0"/></g></svg>